<?xml version="1.0" standalone="no"?>
<!DOCTYPE svg PUBLIC "-//W3C//DTD SVG 20010904//EN"
 "http://www.w3.org/TR/2001/REC-SVG-20010904/DTD/svg10.dtd">
<svg version="1.0" xmlns="http://www.w3.org/2000/svg"
 width="500.000000pt" height="500.000000pt" viewBox="0 0 500.000000 500.000000"
 preserveAspectRatio="xMidYMid meet">

<g transform="translate(0.000000,500.000000) scale(0.100000,-0.100000)"
fill="#000000" stroke="none">
<path d="M2480 4985 c0 -9 -8 -18 -17 -22 -10 -4 -120 -66 -245 -140 -125 -73
-230 -133 -232 -133 -3 0 -24 -13 -48 -29 -24 -16 -70 -43 -103 -61 -33 -18
-123 -69 -200 -113 -77 -45 -152 -89 -167 -97 -15 -8 -51 -29 -80 -46 -29 -17
-75 -43 -103 -59 -27 -15 -97 -55 -155 -89 -58 -34 -116 -67 -130 -74 -14 -7
-34 -18 -45 -25 -11 -7 -102 -59 -202 -117 -101 -58 -211 -121 -245 -141 -35
-21 -83 -48 -108 -62 -39 -22 -46 -30 -53 -68 -4 -24 -6 -583 -4 -1241 2
-1038 5 -1200 17 -1212 14 -14 33 -26 160 -96 133 -74 166 -93 181 -106 8 -8
19 -14 23 -14 6 0 303 -171 366 -210 8 -6 40 -23 70 -40 30 -17 69 -39 85 -50
17 -11 44 -26 60 -34 17 -9 37 -20 45 -26 27 -18 241 -140 246 -140 3 0 29
-15 57 -34 55 -35 109 -67 192 -111 28 -15 57 -33 66 -41 8 -8 18 -14 22 -14
4 0 44 -22 89 -49 77 -45 112 -64 228 -129 25 -13 52 -31 61 -38 8 -8 20 -14
25 -14 5 0 32 -15 59 -32 97 -63 100 -64 143 -40 20 12 58 32 83 46 26 14 67
38 90 53 75 48 83 53 109 65 14 7 74 41 133 75 60 35 110 63 112 63 2 0 66 37
142 81 150 89 441 257 513 297 25 14 57 33 72 43 14 11 28 19 31 19 3 0 51 27
107 60 55 33 136 78 178 101 42 23 84 47 92 54 8 7 22 15 30 19 8 4 24 12 35
19 11 7 68 39 125 72 58 33 112 64 121 70 10 5 41 23 70 38 30 15 60 35 67 44
9 13 12 275 12 1232 0 669 -3 1226 -6 1237 -3 13 -27 33 -57 49 -29 14 -79 44
-112 65 -33 22 -80 50 -105 63 -99 52 -166 90 -180 103 -8 7 -26 17 -40 23
-14 6 -32 15 -40 21 -17 11 -332 194 -402 233 -108 61 -142 80 -304 174 -93
55 -176 102 -184 106 -31 14 -127 70 -168 98 -24 16 -45 29 -48 29 -2 0 -107
60 -232 133 -125 74 -235 136 -244 140 -10 4 -18 13 -18 22 0 8 -9 15 -20 15
-11 0 -20 -7 -20 -15z m-133 -307 c54 -31 64 -33 153 -33 87 1 100 3 157 33
39 20 69 29 80 25 10 -4 77 -42 150 -85 72 -43 134 -78 138 -78 4 0 30 -15 58
-34 29 -19 71 -45 95 -58 24 -12 60 -33 80 -45 20 -12 44 -25 52 -29 8 -4 89
-51 180 -104 91 -53 192 -112 225 -130 33 -19 163 -94 288 -167 126 -73 232
-133 236 -133 18 0 62 -60 67 -92 5 -31 2 -38 -25 -57 -37 -26 -122 -75 -168
-96 -17 -8 -34 -19 -38 -25 -15 -24 -45 -9 -61 30 -20 49 -73 97 -116 105 -18
3 -189 5 -379 3 l-346 -3 -36 -25 c-24 -16 -43 -40 -54 -68 -19 -49 -14 -72
42 -207 76 -181 117 -295 112 -308 -3 -8 -43 -36 -89 -62 -45 -26 -90 -54 -99
-62 -13 -11 -18 -11 -26 -1 -6 7 -69 159 -139 337 -143 359 -158 385 -237 396
-23 3 -195 5 -382 3 -378 -3 -374 -3 -415 -71 -28 -45 -24 -100 11 -187 156
-383 212 -530 206 -537 -4 -3 -18 2 -33 12 -14 9 -51 31 -83 48 -31 17 -74 42
-96 56 -61 39 -78 49 -110 64 -31 14 -85 70 -85 88 0 17 -159 412 -183 453
-43 75 -47 76 -434 76 l-343 0 0 38 c0 53 24 74 175 157 49 27 161 91 490 280
88 51 178 102 200 114 42 22 55 30 120 72 22 14 54 32 70 40 17 8 116 65 220
125 269 156 299 174 307 174 4 0 34 -15 65 -32z m2140 -1236 l32 -27 3 -537
c2 -295 0 -534 -4 -530 -3 4 -38 86 -76 182 -38 96 -120 299 -180 450 -61 151
-113 284 -116 295 -4 17 17 33 142 107 81 48 152 87 157 87 6 0 24 -12 42 -27z
m-3777 -287 c64 -159 178 -445 254 -635 76 -190 151 -376 167 -415 16 -38 89
-223 164 -410 91 -231 142 -345 157 -358 68 -54 147 -48 204 15 12 12 36 59
54 103 184 457 250 624 250 629 0 3 13 35 30 71 35 77 38 131 10 192 -17 39
-36 86 -115 286 -15 38 -25 71 -22 74 3 2 65 -31 139 -74 l133 -79 6 -58 c12
-104 38 -164 100 -225 31 -31 73 -69 93 -86 l37 -30 -7 -908 -7 -909 -38 -25
-38 -25 -65 36 c-36 20 -104 59 -150 86 -47 28 -87 50 -90 50 -3 0 -24 13 -48
29 -24 16 -65 41 -93 55 -27 15 -57 31 -65 36 -76 46 -539 314 -585 340 -107
59 -150 84 -163 97 -7 7 -17 13 -22 13 -5 0 -58 29 -119 65 -60 36 -113 65
-118 65 -4 1 -21 11 -36 24 -23 19 -29 33 -33 82 -11 116 -68 216 -158 275
-24 16 -47 40 -50 52 -3 13 -6 425 -6 917 l-1 895 26 23 c19 16 37 22 58 20
30 -3 32 -7 147 -293z m2709 -482 c34 -87 75 -189 91 -228 16 -38 43 -106 61
-150 17 -44 42 -105 54 -135 36 -86 188 -472 239 -605 63 -165 85 -206 125
-232 56 -38 137 -27 184 24 9 11 28 46 41 79 224 558 299 740 305 747 12 12 1
-554 -10 -579 -6 -11 -25 -29 -42 -39 -85 -50 -157 -168 -157 -256 0 -61 -14
-97 -42 -109 -13 -6 -45 -25 -73 -42 -53 -33 -98 -59 -180 -103 -27 -15 -67
-39 -90 -53 -36 -24 -76 -46 -160 -92 -16 -9 -48 -27 -70 -41 -22 -14 -51 -30
-65 -37 -14 -7 -50 -27 -80 -46 -30 -18 -131 -77 -225 -131 -93 -54 -182 -105
-197 -114 -27 -17 -217 -127 -253 -148 -93 -53 -147 -74 -174 -68 -61 13 -58
-13 -64 615 l-5 575 33 -70 c38 -83 75 -122 121 -131 86 -16 144 26 188 136
191 469 316 795 316 820 0 35 -16 81 -99 284 -34 81 -61 151 -61 155 0 7 75
55 140 89 25 13 49 28 55 33 22 22 35 1 94 -148z"/>
</g>
</svg>
